<?xml version="1.0" encoding="UTF-8" standalone="no"?>
<!DOCTYPE svg PUBLIC "-//W3C//DTD SVG 1.1//EN" "http://www.w3.org/Graphics/SVG/1.1/DTD/svg11.dtd">
<svg width="100%" height="100%" viewBox="0 0 506 156" version="1.1" xmlns="http://www.w3.org/2000/svg" xmlns:xlink="http://www.w3.org/1999/xlink" xml:space="preserve" xmlns:serif="http://www.serif.com/" style="fill-rule:evenodd;clip-rule:evenodd;stroke-linejoin:round;stroke-miterlimit:2;">
    <g transform="matrix(1,0,0,1,-1977.13,-1136.59)">
        <g transform="matrix(1,0,0,1,0,523.842)">
            <path d="M2026.66,644.951L2038.54,644.951L2038.54,688.892C2038.54,688.892 2038.68,702.909 2025.73,702.909C2012.78,702.909 2015.93,702.909 2015.93,702.909C2015.93,702.909 2005.39,701.004 2005.39,693.281L2005.39,680.342L2015.88,680.342L2015.88,689.392C2015.88,689.392 2016.1,692.995 2020.41,692.995C2024.72,692.995 2026.26,691.427 2026.26,688.992C2026.26,686.556 2026.66,644.951 2026.66,644.951Z" style="fill:white;"/>
            <path d="M2047.47,644.951L2047.47,702.909L2078.33,702.909L2078.33,692.075L2060.24,692.075L2060.24,678.625L2074.21,678.625L2074.21,668.037L2060.39,668.037L2060.39,654.834L2078.14,654.834L2078.14,644.951L2047.47,644.951Z" style="fill:white;"/>
            <path d="M2084.97,644.951L2084.97,654.814L2095.87,654.814L2095.87,702.909L2108.52,702.909L2108.52,655.326L2119.07,655.326L2119.07,644.951L2084.97,644.951Z" style="fill:white;"/>
            <path d="M2274.14,644.951L2274.14,702.909L2305.07,702.909L2305.07,691.961L2286.32,691.961L2286.32,644.951L2274.14,644.951Z" style="fill:white;"/>
            <path d="M2307.96,702.909L2322.34,644.951L2337.37,644.951L2351.5,702.909L2339.2,702.909L2336.68,692.035L2323.9,692.035L2320.97,702.909L2307.96,702.909ZM2329.73,659.227L2325.99,679.742L2334.34,679.742L2329.73,659.227Z" style="fill:white;"/>
            <path d="M2355.35,656.584L2355.35,691.152C2355.35,691.152 2355.75,702.909 2366.43,702.909C2377.12,702.909 2375.58,702.909 2375.58,702.909C2375.58,702.909 2380.48,702.522 2380.48,700.073L2382.61,700.073C2382.61,700.073 2382.4,702.909 2383.86,702.909L2390.26,702.909L2390.26,671.187L2373.41,671.187L2373.41,681.111L2377.5,681.111C2377.5,681.111 2379.06,681.297 2379.06,682.726L2379.06,689.281C2379.06,689.281 2379.02,693.163 2374.46,693.163C2369.9,693.163 2371.36,693.163 2371.36,693.163C2371.36,693.163 2367.23,693.642 2367.23,688.851L2367.23,657.327C2367.23,657.327 2368.08,654.024 2371.45,654.024C2374.83,654.024 2378.91,654.075 2378.91,657.057L2378.91,664.74L2389.95,664.74L2389.95,654.093C2389.95,654.093 2388.29,643.791 2375.84,643.791C2363.39,643.791 2366.33,643.791 2366.33,643.791C2366.33,643.791 2355.35,645.243 2355.35,656.584Z" style="fill:white;"/>
            <g transform="matrix(1,0,0,1,1950.15,312.992)">
                <path d="M192,336L192,387C192,387 191.582,394.206 209,403C226.418,411.794 234.833,418.833 242,422C245.049,423.347 248.975,423.4 252,422C261,417.833 296,397 296,397C296,397 303,394.824 303,379L303,337C303,337 303.824,329.804 288,320C270.531,309.177 262.667,304.167 255,301C250.995,299.346 246.002,299.339 242,301C233.167,304.667 202,323 202,323C202,323 192,328.781 192,336Z" style="fill:white;"/>
            </g>
            <g transform="matrix(1.00181,0,0,1,-4.37224,0)">
                <path d="M2417.18,651.462L2417.18,695.87C2417.18,711.131 2404.81,723.521 2389.58,723.521L2005.52,723.521C1990.29,723.521 1977.92,711.131 1977.92,695.87L1977.92,651.462C1977.92,636.201 1990.29,623.812 2005.52,623.812L2389.58,623.812C2404.81,623.812 2417.18,636.201 2417.18,651.462ZM2410.94,651.462C2410.94,639.651 2401.37,630.062 2389.58,630.062L2005.52,630.062C1993.73,630.062 1984.16,639.651 1984.16,651.462L1984.16,695.87C1984.16,707.681 1993.73,717.271 2005.52,717.271L2389.58,717.271C2401.37,717.271 2410.94,707.681 2410.94,695.87L2410.94,651.462Z" style="fill:white;"/>
            </g>
            <g transform="matrix(1.15144,-0.154932,0.129034,0.958968,-423.146,392.766)">
                <path d="M2439.2,720.342L2439.2,751.392C2439.2,757.317 2435.2,762.128 2430.26,762.128L2294.44,762.128C2289.51,762.128 2285.5,757.317 2285.5,751.392L2285.5,720.342C2285.5,714.417 2289.51,709.606 2294.44,709.606L2430.26,709.606C2435.2,709.606 2439.2,714.417 2439.2,720.342Z" style="fill:rgb(250,182,91);"/>
            </g>
            <g transform="matrix(0.99015,-0.14001,0.14001,0.99015,-1207.74,428.26)">
                <g transform="matrix(41.6667,0,0,41.6667,3451.41,819.721)">
                    <path d="M0.002,-0.692L0.002,-0.527L0.117,-0.527L0.117,-0L0.287,-0L0.287,-0.527L0.402,-0.527L0.402,-0.692L0.002,-0.692Z" style="fill:rgb(36,51,66);fill-rule:nonzero;"/>
                </g>
                <g transform="matrix(41.6667,0,0,41.6667,3468.25,819.721)">
                    <path d="M0.206,-0.42L0.206,-0.692L0.036,-0.692L0.036,-0L0.206,-0L0.206,-0.26L0.278,-0.26L0.278,-0L0.448,-0L0.448,-0.692L0.278,-0.692L0.278,-0.42L0.206,-0.42Z" style="fill:rgb(36,51,66);fill-rule:nonzero;"/>
                </g>
                <g transform="matrix(41.6667,0,0,41.6667,3488.41,819.721)">
                    <path d="M0.036,-0.692L0.036,-0L0.388,-0L0.388,-0.16L0.206,-0.16L0.206,-0.268L0.358,-0.268L0.358,-0.428L0.206,-0.428L0.206,-0.532L0.388,-0.532L0.388,-0.692L0.036,-0.692Z" style="fill:rgb(36,51,66);fill-rule:nonzero;"/>
                </g>
                <g transform="matrix(41.6667,0,0,41.6667,3512.12,819.721)">
                    <path d="M0.196,-0.692L0.036,-0.692L0.036,-0L0.191,-0L0.182,-0.349L0.181,-0.395L0.256,-0.11L0.328,-0.11L0.403,-0.395L0.402,-0.349L0.393,-0L0.548,-0L0.548,-0.692L0.388,-0.692L0.292,-0.392L0.196,-0.692Z" style="fill:rgb(36,51,66);fill-rule:nonzero;"/>
                </g>
                <g transform="matrix(41.6667,0,0,41.6667,3536.45,819.721)">
                    <path d="M0.36,-0.692L0.108,-0.692L0.002,-0L0.174,-0L0.185,-0.109L0.283,-0.109L0.294,-0L0.466,-0L0.36,-0.692ZM0.266,-0.275L0.202,-0.275L0.234,-0.585L0.266,-0.275Z" style="fill:rgb(36,51,66);fill-rule:nonzero;"/>
                </g>
                <g transform="matrix(41.6667,0,0,41.6667,3555.95,819.721)">
                    <path d="M0.036,-0.692L0.036,-0L0.206,-0L0.206,-0.171L0.22,-0.171C0.374,-0.171 0.45,-0.254 0.45,-0.385L0.45,-0.478C0.45,-0.609 0.374,-0.692 0.22,-0.692L0.036,-0.692ZM0.28,-0.385C0.28,-0.348 0.261,-0.331 0.22,-0.331L0.206,-0.331L0.206,-0.532L0.22,-0.532C0.261,-0.532 0.28,-0.515 0.28,-0.478L0.28,-0.385Z" style="fill:rgb(36,51,66);fill-rule:nonzero;"/>
                </g>
                <g transform="matrix(41.6667,0,0,41.6667,3575.08,819.721)">
                    <path d="M0.418,-0.471C0.418,-0.627 0.371,-0.704 0.219,-0.704L0.218,-0.704C0.075,-0.704 0.015,-0.62 0.015,-0.516C0.015,-0.416 0.05,-0.364 0.115,-0.323L0.204,-0.267C0.237,-0.246 0.251,-0.226 0.251,-0.193C0.251,-0.163 0.24,-0.148 0.215,-0.148L0.214,-0.148C0.18,-0.148 0.176,-0.178 0.176,-0.226L0.012,-0.226C0.012,-0.042 0.088,0.012 0.214,0.012L0.215,0.012C0.355,0.012 0.421,-0.056 0.421,-0.184C0.421,-0.273 0.401,-0.331 0.331,-0.378L0.254,-0.43C0.207,-0.462 0.185,-0.475 0.185,-0.506C0.185,-0.529 0.197,-0.544 0.218,-0.544L0.219,-0.544C0.251,-0.544 0.254,-0.521 0.254,-0.471L0.418,-0.471Z" style="fill:rgb(36,51,66);fill-rule:nonzero;"/>
                </g>
            </g>
            <g>
                <path d="M2148.17,675.762C2148.17,675.762 2171.26,678.953 2171.26,664.125L2181.09,658.654L2182.58,673.822L2173.92,684.252L2148.17,683L2148.17,675.762Z" style="fill:rgb(250,182,91);"/>
                <path d="M2148.17,683C2148.17,683 2177.98,687.137 2177.98,661.409L2188.27,655.947L2189.08,667.124L2188.08,682.868L2172.61,690.378L2157.54,693.698L2148.17,690.13L2148.17,683Z" style="fill:rgb(242,119,75);"/>
                <path d="M2148.17,696.937L2148.17,690.13C2148.17,690.13 2185.08,693.973 2185.08,660.56L2190.68,652.478L2195.82,653.025L2197.05,673.28L2190.82,692.913L2171.12,699.468L2152.67,699.881L2148.17,696.937Z" style="fill:rgb(236,52,65);"/>
            </g>
            <g transform="matrix(-1,0,0,1,4394.11,0)">
                <path d="M2148.17,675.762C2148.17,675.762 2171.26,678.953 2171.26,664.125L2181.09,658.654L2182.58,673.822L2173.92,684.252L2148.17,683L2148.17,675.762Z" style="fill:rgb(250,182,91);"/>
                <path d="M2148.17,683C2148.17,683 2177.98,687.137 2177.98,661.409L2188.27,655.947L2189.08,667.124L2188.08,682.868L2172.61,690.378L2157.54,693.698L2148.17,690.13L2148.17,683Z" style="fill:rgb(242,119,75);"/>
                <path d="M2148.17,696.937L2148.17,690.13C2148.17,690.13 2185.08,693.973 2185.08,660.56L2190.68,652.478L2195.82,653.025L2197.05,673.28L2190.82,692.913L2171.12,699.468L2152.67,699.881L2148.17,696.937Z" style="fill:rgb(236,52,65);"/>
            </g>
            <g transform="matrix(0.942149,0,0,0.942149,1964.47,330.405)">
                <path d="M194.979,389.022L196.018,388.999L214.062,388.999C218.922,388.999 241.546,379.778 241.546,360.736L241.961,348.411L219.493,354.211L219.577,349.617L242.72,336.026L242.72,319.044C242.72,319.044 244.168,313.114 245.229,311.875C245.92,311.07 249.041,310.808 249.731,311.614C250.793,312.852 252.273,319.044 252.273,319.044L252.273,336.026L275.624,349.825L275.624,354.07L254.395,348.763L254.395,361.002C254.395,361.002 255.125,388.999 283.053,388.999L298.754,388.999L298.754,389.614C298.754,393.763 296,397 296,397C296,397 261,417.833 252,422C248.975,423.4 245.049,423.347 242,422C234.833,418.833 226.146,412.314 209,403C194.766,395.267 194.979,389.022 194.979,389.022Z" style="fill:rgb(47,67,84);"/>
            </g>
        </g>
    </g>
</svg>
